HIERARCHY
ROOT Hips
{
	OFFSET 0.053599 88.859886 3.107447
	CHANNELS 6 Xposition Yposition Zposition Zrotation Yrotation Xrotation 
	JOINT Spine
	{
		OFFSET -0.000000 8.814246 -2.080107
		CHANNELS 3 Zrotation Yrotation Xrotation
		JOINT Spine1
		{
			OFFSET 0.000000 8.844141 0.000000
			CHANNELS 3 Zrotation Yrotation Xrotation
			JOINT Spine2
			{
				OFFSET -0.000000 11.682268 0.000000
				CHANNELS 3 Zrotation Yrotation Xrotation
				JOINT Spine3
				{
					OFFSET 0.000000 11.746700 0.000000
					CHANNELS 3 Zrotation Yrotation Xrotation
					JOINT Neck
					{
						OFFSET -0.000000 17.658264 -0.000000
						CHANNELS 3 Zrotation Yrotation Xrotation
						JOINT Neck1
						{
							OFFSET -0.000000 5.101515 -0.000000
							CHANNELS 3 Zrotation Yrotation Xrotation
							JOINT Head
							{
								OFFSET 0.000000 5.101515 0.000000
								CHANNELS 3 Zrotation Yrotation Xrotation
								JOINT HeadEnd
								{
									OFFSET 0.000000 11.655085 0.000000
									CHANNELS 3 Zrotation Yrotation Xrotation
									End Site
									{
										OFFSET 0.000000 0.000000 0.000000
									}
								}
							}
						}
					}
					JOINT RightShoulder
					{
						OFFSET -2.625389 11.175210 0.000000
						CHANNELS 3 Zrotation Yrotation Xrotation
						JOINT RightArm
						{
							OFFSET -0.000000 10.434715 -0.000000
							CHANNELS 3 Zrotation Yrotation Xrotation
							JOINT RightForeArm
							{
								OFFSET -0.000000 29.628420 0.000000
								CHANNELS 3 Zrotation Yrotation Xrotation
								JOINT RightHand
								{
									OFFSET -0.000000 22.857611 0.000000
									CHANNELS 3 Zrotation Yrotation Xrotation
									JOINT RightHandThumb1
									{
										OFFSET -2.867323 3.959563 2.944291
										CHANNELS 3 Zrotation Yrotation Xrotation
										JOINT RightHandThumb2
										{
											OFFSET 0.000000 3.350399 0.000000
											CHANNELS 3 Zrotation Yrotation Xrotation
											JOINT RightHandThumb3
											{
												OFFSET 0.000000 3.756509 -0.000000
												CHANNELS 3 Zrotation Yrotation Xrotation
												JOINT RightHandThumb4
												{
													OFFSET 0.000000 3.147345 0.000000
													CHANNELS 3 Zrotation Yrotation Xrotation
													End Site
													{
														OFFSET 0.000000 0.000000 0.000000
													}
												}
											}
										}
									}
									JOINT RightHandIndex1
									{
										OFFSET -0.086752 10.030893 2.345280
										CHANNELS 3 Zrotation Yrotation Xrotation
										JOINT RightHandIndex2
										{
											OFFSET -0.000000 4.061090 0.000000
											CHANNELS 3 Zrotation Yrotation Xrotation
											JOINT RightHandIndex3
											{
												OFFSET -0.000000 3.248873 0.000000
												CHANNELS 3 Zrotation Yrotation Xrotation
												JOINT RightHandIndex4
												{
													OFFSET 0.000000 2.639709 -0.000000
													CHANNELS 3 Zrotation Yrotation Xrotation
													End Site
													{
														OFFSET 0.000000 0.000000 0.000000
													}
												}
											}
										}
									}
									JOINT RightHandMiddle1
									{
										OFFSET 0.104102 9.502952 0.006768
										CHANNELS 3 Zrotation Yrotation Xrotation
										JOINT RightHandMiddle2
										{
											OFFSET 0.000000 4.568727 0.000000
											CHANNELS 3 Zrotation Yrotation Xrotation
											JOINT RightHandMiddle3
											{
												OFFSET 0.000000 3.654981 -0.000000
												CHANNELS 3 Zrotation Yrotation Xrotation
												JOINT RightHandMiddle4
												{
													OFFSET -0.000000 2.741236 -0.000000
													CHANNELS 3 Zrotation Yrotation Xrotation
													End Site
													{
														OFFSET 0.000000 0.000000 0.000000
													}
												}
											}
										}
									}
									JOINT RightHandRing1
									{
										OFFSET 0.086752 8.921708 -2.267442
										CHANNELS 3 Zrotation Yrotation Xrotation
										JOINT RightHandRing2
										{
											OFFSET -0.000000 4.061090 0.000000
											CHANNELS 3 Zrotation Yrotation Xrotation
											JOINT RightHandRing3
											{
												OFFSET 0.000000 3.654981 -0.000000
												CHANNELS 3 Zrotation Yrotation Xrotation
												JOINT RightHandRing4
												{
													OFFSET 0.000000 2.741236 -0.000000
													CHANNELS 3 Zrotation Yrotation Xrotation
													End Site
													{
														OFFSET 0.000000 0.000000 0.000000
													}
												}
											}
										}
									}
									JOINT RightHandPinky1
									{
										OFFSET -0.173504 7.976997 -4.467199
										CHANNELS 3 Zrotation Yrotation Xrotation
										JOINT RightHandPinky2
										{
											OFFSET 0.000000 3.350399 -0.000000
											CHANNELS 3 Zrotation Yrotation Xrotation
											JOINT RightHandPinky3
											{
												OFFSET -0.000000 2.842763 0.000000
												CHANNELS 3 Zrotation Yrotation Xrotation
												JOINT RightHandPinky4
												{
													OFFSET -0.000000 2.639709 0.000000
													CHANNELS 3 Zrotation Yrotation Xrotation
													End Site
													{
														OFFSET 0.000000 0.000000 0.000000
													}
												}
											}
										}
									}
									JOINT RightForeArmEnd
									{
										OFFSET 0.000000 0.000000 0.000000
										CHANNELS 3 Zrotation Yrotation Xrotation
										End Site
										{
											OFFSET 0.000000 0.000000 0.000000
										}
									}
								}
								JOINT RightArmEnd
								{
									OFFSET 0.000000 0.000000 0.000000
									CHANNELS 3 Zrotation Yrotation Xrotation
									End Site
									{
										OFFSET 0.000000 0.000000 0.000000
									}
								}
							}
						}
					}
					JOINT LeftShoulder
					{
						OFFSET 2.625389 11.175210 0.000000
						CHANNELS 3 Zrotation Yrotation Xrotation
						JOINT LeftArm
						{
							OFFSET 0.000000 10.813635 -0.000000
							CHANNELS 3 Zrotation Yrotation Xrotation
							JOINT LeftForeArm
							{
								OFFSET 0.000000 28.724781 0.000000
								CHANNELS 3 Zrotation Yrotation Xrotation
								JOINT LeftHand
								{
									OFFSET 0.644384 25.716167 -0.328871
									CHANNELS 3 Zrotation Yrotation Xrotation
									JOINT LeftHandThumb1
									{
										OFFSET 2.867323 3.959563 2.944291
										CHANNELS 3 Zrotation Yrotation Xrotation
										JOINT LeftHandThumb2
										{
											OFFSET 0.000000 3.350399 0.000000
											CHANNELS 3 Zrotation Yrotation Xrotation
											JOINT LeftHandThumb3
											{
												OFFSET -0.000000 3.756509 0.000000
												CHANNELS 3 Zrotation Yrotation Xrotation
												JOINT LeftHandThumb4
												{
													OFFSET -0.000000 3.100000 0.000000
													CHANNELS 3 Zrotation Yrotation Xrotation
													End Site
													{
														OFFSET 0.000000 0.000000 0.000000
													}
												}
											}
										}
									}
									JOINT LeftHandIndex1
									{
										OFFSET 0.086752 10.030893 2.345280
										CHANNELS 3 Zrotation Yrotation Xrotation
										JOINT LeftHandIndex2
										{
											OFFSET -0.000000 4.061090 -0.000000
											CHANNELS 3 Zrotation Yrotation Xrotation
											JOINT LeftHandIndex3
											{
												OFFSET 0.000000 3.248873 -0.000000
												CHANNELS 3 Zrotation Yrotation Xrotation
												JOINT LeftHandIndex4
												{
													OFFSET 0.000000 2.639709 -0.000000
													CHANNELS 3 Zrotation Yrotation Xrotation
													End Site
													{
														OFFSET 0.000000 0.000000 0.000000
													}
												}
											}
										}
									}
									JOINT LeftHandMiddle1
									{
										OFFSET -0.104102 9.502952 0.006768
										CHANNELS 3 Zrotation Yrotation Xrotation
										JOINT LeftHandMiddle2
										{
											OFFSET -0.000000 4.568727 -0.000000
											CHANNELS 3 Zrotation Yrotation Xrotation
											JOINT LeftHandMiddle3
											{
												OFFSET 0.000000 3.654981 0.000000
												CHANNELS 3 Zrotation Yrotation Xrotation
												JOINT LeftHandMiddle4
												{
													OFFSET 0.000000 2.741236 -0.000000
													CHANNELS 3 Zrotation Yrotation Xrotation
													End Site
													{
														OFFSET 0.000000 0.000000 0.000000
													}
												}
											}
										}
									}
									JOINT LeftHandRing1
									{
										OFFSET -0.086752 8.921708 -2.267442
										CHANNELS 3 Zrotation Yrotation Xrotation
										JOINT LeftHandRing2
										{
											OFFSET 0.000000 4.061090 0.000000
											CHANNELS 3 Zrotation Yrotation Xrotation
											JOINT LeftHandRing3
											{
												OFFSET 0.000000 3.654981 0.000000
												CHANNELS 3 Zrotation Yrotation Xrotation
												JOINT LeftHandRing4
												{
													OFFSET 0.000000 2.741236 0.000000
													CHANNELS 3 Zrotation Yrotation Xrotation
													End Site
													{
														OFFSET 0.000000 0.000000 0.000000
													}
												}
											}
										}
									}
									JOINT LeftHandPinky1
									{
										OFFSET 0.173504 7.976997 -4.467199
										CHANNELS 3 Zrotation Yrotation Xrotation
										JOINT LeftHandPinky2
										{
											OFFSET -0.000000 3.350399 -0.000000
											CHANNELS 3 Zrotation Yrotation Xrotation
											JOINT LeftHandPinky3
											{
												OFFSET 0.000000 2.842763 0.000000
												CHANNELS 3 Zrotation Yrotation Xrotation
												JOINT LeftHandPinky4
												{
													OFFSET -0.000000 2.639709 -0.000000
													CHANNELS 3 Zrotation Yrotation Xrotation
													End Site
													{
														OFFSET 0.000000 0.000000 0.000000
													}
												}
											}
										}
									}
									JOINT LeftForeArmEnd
									{
										OFFSET 0.000000 0.000000 0.000000
										CHANNELS 3 Zrotation Yrotation Xrotation
										End Site
										{
											OFFSET 0.000000 0.000000 0.000000
										}
									}
								}
								JOINT LeftArmEnd
								{
									OFFSET 0.000000 0.000000 0.000000
									CHANNELS 3 Zrotation Yrotation Xrotation
									End Site
									{
										OFFSET 0.000000 0.000000 0.000000
									}
								}
							}
						}
					}
				}
			}
		}
	}
	JOINT RightUpLeg
	{
		OFFSET -11.289943 0.000000 0.000000
		CHANNELS 3 Zrotation Yrotation Xrotation
		JOINT RightLeg
		{
			OFFSET 0.000000 -38.200325 0.000000
			CHANNELS 3 Zrotation Yrotation Xrotation
			JOINT RightFoot
			{
				OFFSET -0.000000 -39.900856 -0.000000
				CHANNELS 3 Zrotation Yrotation Xrotation
				JOINT RightToeBase
				{
					OFFSET 0.000000 0.000000 15.261641
					CHANNELS 3 Zrotation Yrotation Xrotation
					JOINT RightToeBaseEnd
					{
						OFFSET 0.000000 0.000000 7.370709
						CHANNELS 3 Zrotation Yrotation Xrotation
						End Site
						{
							OFFSET 0.000000 0.000000 0.000000
						}
					}
				}
				JOINT RightLegEnd
				{
					OFFSET 0.000000 0.000000 0.000000
					CHANNELS 3 Zrotation Yrotation Xrotation
					End Site
					{
						OFFSET 0.000000 0.000000 0.000000
					}
				}
			}
			JOINT RightUpLegEnd
			{
				OFFSET 0.000000 0.000000 0.000000
				CHANNELS 3 Zrotation Yrotation Xrotation
				End Site
				{
					OFFSET 0.000000 0.000000 0.000000
				}
			}
		}
	}
	JOINT LeftUpLeg
	{
		OFFSET 11.315661 -0.000000 0.000000
		CHANNELS 3 Zrotation Yrotation Xrotation
		JOINT LeftLeg
		{
			OFFSET -0.000000 -38.200325 -0.000000
			CHANNELS 3 Zrotation Yrotation Xrotation
			JOINT LeftFoot
			{
				OFFSET 0.000000 -39.900856 -0.000000
				CHANNELS 3 Zrotation Yrotation Xrotation
				JOINT LeftToeBase
				{
					OFFSET -0.000000 -0.000000 15.261641
					CHANNELS 3 Zrotation Yrotation Xrotation
					JOINT LeftToeBaseEnd
					{
						OFFSET 0.000000 -0.000000 7.539996
						CHANNELS 3 Zrotation Yrotation Xrotation
						End Site
						{
							OFFSET 0.000000 0.000000 0.000000
						}
					}
				}
				JOINT LeftLegEnd
				{
					OFFSET 0.000000 0.000000 0.000000
					CHANNELS 3 Zrotation Yrotation Xrotation
					End Site
					{
						OFFSET 0.000000 0.000000 0.000000
					}
				}
			}
			JOINT LeftUpLegEnd
			{
				OFFSET 0.000000 0.000000 0.000000
				CHANNELS 3 Zrotation Yrotation Xrotation
				End Site
				{
					OFFSET 0.000000 0.000000 0.000000
				}
			}
		}
	}
}
MOTION
Frames: 4
Frame Time: 0.016667
0.220000 88.793015 2.942085 -0.434938 -0.984488 -8.443043 1.234174 0.004257 6.819596 -0.897854 0.193691 2.579705 0.809454 -1.428140 2.655359 -0.753833 -0.010982 3.430918 0.885688 1.728384 3.196985 0.426173 2.360093 -3.706968 -0.853495 -0.750389 -18.754343 0.000000 0.000000 0.000000 92.854225 -0.457477 9.789718 66.067192 -31.092270 3.295474 -0.079309 14.234282 22.908157 6.954918 11.405255 -5.082466 19.923109 30.071976 62.010315 -8.489169 -12.247080 -20.623997 -6.354243 -8.163508 -14.351658 0.000000 0.000000 0.000000 12.481872 -10.963230 0.349370 9.667480 0.338481 1.327862 9.453835 -0.098078 1.253489 0.000000 0.000000 0.000000 11.427117 -5.473761 -0.532597 8.348998 0.426486 0.515075 8.737570 -0.051607 0.435613 0.000000 0.000000 0.000000 10.983554 2.469717 -0.174847 8.428448 -0.898415 -0.810198 8.424033 0.053092 -0.580435 0.000000 0.000000 0.000000 9.680684 11.064340 -0.900308 7.794108 -1.689031 -2.338042 7.520385 0.248306 -1.962475 0.000000 0.000000 0.000000 0.000000 0.000000 0.000000 0.000000 0.000000 0.000000 -89.684143 0.062641 6.095982 -71.886589 19.022461 -5.075553 -1.052690 -9.573312 41.396206 0.869222 -21.983212 -14.632506 -20.147747 -30.007151 61.670231 8.781739 12.714266 -21.448431 6.551280 8.523200 -14.985286 0.000000 0.000000 0.000000 -17.155943 -5.708589 0.987156 -11.204682 0.323880 -1.281881 -11.142289 -0.128815 -1.196971 0.000000 0.000000 0.000000 -16.175213 -0.642851 -0.067786 -10.987222 0.419337 -0.542739 -10.986720 -0.063109 -0.434610 0.000000 0.000000 0.000000 -18.156532 7.409533 -0.209672 -12.372750 -0.899997 0.807195 -12.374907 0.063467 0.623257 0.000000 0.000000 0.000000 -19.291727 15.867846 -1.183042 -12.760658 -1.650316 2.478324 -12.515125 0.287604 2.151907 0.000000 0.000000 0.000000 0.000000 0.000000 0.000000 0.000000 0.000000 0.000000 -0.046672 -8.842138 12.088034 -0.051242 -0.634459 5.944075 -2.568451 -8.566959 17.874743 -0.780576 0.759807 -18.862757 0.000000 0.000000 0.000000 0.000000 0.000000 0.000000 0.000000 0.000000 0.000000 -1.379187 -6.122428 7.610155 0.062066 0.331182 9.372270 3.813172 -0.079548 16.913183 0.395948 -0.460347 -20.550350 0.000000 0.000000 0.000000 0.000000 0.000000 0.000000 0.000000 0.000000 0.000000 
0.221527 88.797089 2.934674 -0.437166 -1.034775 -8.464270 1.209013 0.015181 6.845171 -0.887810 0.192217 2.575914 0.803078 -1.419031 2.693083 -0.741053 -0.011916 3.425308 0.915012 1.725338 3.158367 0.428163 2.365713 -3.734625 -0.855888 -0.756344 -18.729506 0.000000 0.000000 0.000000 92.843025 -0.455905 9.811626 66.087227 -31.091164 3.279702 -0.072620 14.199807 22.855356 6.949923 11.354424 -5.048125 19.931137 30.070580 62.003574 -8.496319 -12.259994 -20.647226 -6.358374 -8.172459 -14.366827 0.000000 0.000000 0.000000 12.546275 -10.969099 0.355940 9.693789 0.337060 1.333167 9.481557 -0.099639 1.258714 0.000000 0.000000 0.000000 11.478741 -5.481088 -0.531919 8.371417 0.426015 0.518047 8.764600 -0.052535 0.437870 0.000000 0.000000 0.000000 11.023157 2.463359 -0.179717 8.454980 -0.897307 -0.812882 8.446108 0.053920 -0.581788 0.000000 0.000000 0.000000 9.708460 11.056596 -0.901914 7.809996 -1.685476 -2.346674 7.538656 0.250616 -1.970238 0.000000 0.000000 0.000000 0.000000 0.000000 0.000000 0.000000 0.000000 0.000000 -89.644768 0.054002 6.106089 -71.899345 18.927183 -5.079495 -1.071971 -9.525854 41.434536 0.865932 -21.839268 -14.628178 -20.143591 -30.008844 61.672379 8.778798 12.710021 -21.441511 6.548409 8.521378 -14.982678 0.000000 0.000000 0.000000 -17.184389 -5.704788 1.002496 -11.216762 0.322558 -1.287544 -11.151089 -0.129878 -1.201942 0.000000 0.000000 0.000000 -16.192276 -0.642270 -0.065522 -10.993156 0.418581 -0.544907 -10.985948 -0.063781 -0.436886 0.000000 0.000000 0.000000 -18.150419 7.402934 -0.241781 -12.357482 -0.899588 0.809946 -12.362550 0.063499 0.625780 0.000000 0.000000 0.000000 -19.254019 15.862077 -1.233436 -12.741217 -1.649491 2.488285 -12.499618 0.288315 2.161320 0.000000 0.000000 0.000000 0.000000 0.000000 0.000000 0.000000 0.000000 0.000000 -0.059766 -8.846710 12.092340 -0.052341 -0.637665 5.896346 -2.550552 -8.518902 17.900536 -0.781082 0.763877 -18.866194 0.000000 0.000000 0.000000 0.000000 0.000000 0.000000 0.000000 0.000000 0.000000 -1.369950 -6.078655 7.607195 0.062530 0.334647 9.377870 3.825332 -0.055044 16.910219 0.398441 -0.458724 -20.554001 0.000000 0.000000 0.000000 0.000000 0.000000 0.000000 0.000000 0.000000 0.000000 
0.222901 88.802650 2.927555 -0.436682 -1.085433 -8.482613 1.184722 0.025330 6.872702 -0.880488 0.191373 2.565478 0.796254 -1.408288 2.732248 -0.731255 -0.012140 3.417042 0.945963 1.722790 3.116156 0.429658 2.372625 -3.762969 -0.858239 -0.762129 -18.700239 0.000000 0.000000 0.000000 92.831818 -0.452816 9.835937 66.099686 -31.094799 3.273773 -0.064229 14.161280 22.803553 6.949350 11.313681 -5.032907 19.938883 30.069180 61.996845 -8.503829 -12.272012 -20.669956 -6.362570 -8.181297 -14.381606 0.000000 0.000000 0.000000 12.618745 -10.974185 0.346572 9.720264 0.335360 1.338750 9.510162 -0.101462 1.264327 0.000000 0.000000 0.000000 11.539109 -5.489007 -0.543263 8.395476 0.425420 0.521272 8.792878 -0.053535 0.440495 0.000000 0.000000 0.000000 11.073009 2.455008 -0.192533 8.483969 -0.895987 -0.815967 8.471056 0.054886 -0.583534 0.000000 0.000000 0.000000 9.749146 11.045909 -0.907940 7.828526 -1.681102 -2.356892 7.559076 0.253419 -1.979640 0.000000 0.000000 0.000000 0.000000 0.000000 0.000000 0.000000 0.000000 0.000000 -89.604958 0.044596 6.119145 -71.907967 18.853632 -5.082563 -1.092322 -9.470093 41.467484 0.855075 -21.716068 -14.615183 -20.140482 -30.010269 61.673851 8.776741 12.707915 -21.437616 6.546510 8.521021 -14.982005 0.000000 0.000000 0.000000 -17.220589 -5.698377 1.010962 -11.230439 0.321228 -1.292651 -11.162451 -0.130922 -1.206549 0.000000 0.000000 0.000000 -16.219801 -0.639715 -0.067312 -11.002532 0.417905 -0.546899 -10.987743 -0.064371 -0.439130 0.000000 0.000000 0.000000 -18.155493 7.398155 -0.273807 -12.347234 -0.899082 0.812593 -12.353997 0.063589 0.628149 0.000000 0.000000 0.000000 -19.227539 15.857234 -1.279734 -12.725786 -1.648418 2.497285 -12.488643 0.289055 2.170032 0.000000 0.000000 0.000000 0.000000 0.000000 0.000000 0.000000 0.000000 0.000000 -0.077496 -8.850122 12.094296 -0.053429 -0.640723 5.850409 -2.532417 -8.471829 17.927221 -0.781223 0.767704 -18.873077 0.000000 0.000000 0.000000 0.000000 0.000000 0.000000 0.000000 0.000000 0.000000 -1.364004 -6.033133 7.601660 0.062852 0.337929 9.374313 3.840652 -0.032483 16.916967 0.401052 -0.457000 -20.561970 0.000000 0.000000 0.000000 0.000000 0.000000 0.000000 0.000000 0.000000 0.000000 
0.224502 88.809273 2.921747 -0.434470 -1.135622 -8.500735 1.161831 0.034349 6.900969 -0.874579 0.190822 2.550261 0.788275 -1.396871 2.773648 -0.723480 -0.011817 3.406874 0.975582 1.721408 3.073182 0.430154 2.380348 -3.790528 -0.860799 -0.767848 -18.668047 0.000000 0.000000 0.000000 92.824585 -0.449330 9.861789 66.098488 -31.100342 3.280588 -0.055461 14.125610 22.759317 6.953216 11.272376 -5.030850 19.946218 30.067789 61.990192 -8.511418 -12.283195 -20.691870 -6.366801 -8.189794 -14.395709 0.000000 0.000000 0.000000 12.696392 -10.978946 0.324240 9.746333 0.333316 1.344655 9.538528 -0.103603 1.270227 0.000000 0.000000 0.000000 11.605028 -5.497343 -0.564332 8.420668 0.424644 0.524710 8.821541 -0.054640 0.443410 0.000000 0.000000 0.000000 11.130208 2.445277 -0.210899 8.515256 -0.894425 -0.819368 8.498465 0.056025 -0.585631 0.000000 0.000000 0.000000 9.798798 11.033520 -0.916520 7.850052 -1.675983 -2.368268 7.582000 0.256776 -1.990272 0.000000 0.000000 0.000000 0.000000 0.000000 0.000000 0.000000 0.000000 0.000000 -89.569283 0.035278 6.134411 -71.912872 18.800837 -5.084640 -1.112842 -9.416518 41.495190 0.833875 -21.611246 -14.597631 -20.138449 -30.011440 61.674618 8.775627 12.707953 -21.436392 6.545546 8.522011 -14.983277 0.000000 0.000000 0.000000 -17.261421 -5.690532 1.012336 -11.245097 0.319726 -1.297643 -11.175827 -0.132125 -1.211139 0.000000 0.000000 0.000000 -16.254070 -0.635766 -0.073791 -11.014253 0.417217 -0.548876 -10.991999 -0.064937 -0.441453 0.000000 0.000000 0.000000 -18.167351 7.395088 -0.306908 -12.340995 -0.898394 0.815223 -12.348439 0.063823 0.630413 0.000000 0.000000 0.000000 -19.210064 15.853391 -1.323767 -12.713948 -1.646961 2.505491 -12.481592 0.290046 2.178116 0.000000 0.000000 0.000000 0.000000 0.000000 0.000000 0.000000 0.000000 0.000000 -0.098635 -8.851927 12.098287 -0.054454 -0.643531 5.807111 -2.514488 -8.427670 17.954531 -0.781097 0.771130 -18.881981 0.000000 0.000000 0.000000 0.000000 0.000000 0.000000 0.000000 0.000000 0.000000 -1.361714 -5.989926 7.597160 0.063066 0.340926 9.363762 3.858830 -0.011415 16.931286 0.403476 -0.455220 -20.573395 0.000000 0.000000 0.000000 0.000000 0.000000 0.000000 0.000000 0.000000 0.000000 
